<svg class="seller-central-logo" version="1.1" viewBox="0 0 159 28" xmlns="http://www.w3.org/2000/svg">
    <g fill="none" fill-rule="evenodd">
        <g transform="translate(0 8)">
            <g transform="translate(8.5514 10.7)" fill="#EC912D">
                <path
                    d="m29.197 3.6362c-3.5353 2.5907-8.6607 3.9684-13.074 3.9684-6.1855 0-11.756-2.2705-15.971-6.0498-0.33103-0.29702-0.035726-0.70216 0.36201-0.47232 4.5478 2.6279 10.172 4.2103 15.98 4.2103 3.9183 0 8.2255-0.80746 12.189-2.4769 0.59765-0.25173 1.0988 0.39118 0.51384 0.82029"/>
                <path
                    d="m30.669 1.9682c-0.45227-0.57479-2.989-0.2723-4.1288-0.13681-0.3451 0.041137-0.39869-0.25852-0.087604-0.47534 2.024-1.4115 5.3397-1.0039 5.7251-0.5312 0.38823 0.47647-0.10205 3.7778-1.9982 5.3533-0.29208 0.2421-0.56952 0.11284-0.44011-0.20701 0.42681-1.0582 1.3823-3.4276 0.92963-4.0029"/>
            </g>
            <path
                d="m35.172 2.0848v-1.3717c0.0013302-0.2087 0.15925-0.34778 0.35023-0.34702l6.1903-7.5481e-4c0.19782 0 0.35688 0.14304 0.35688 0.34608v1.1762c-0.0019003 0.19757-0.16932 0.45477-0.46596 0.8635l-3.2068 4.546c1.1902-0.02755 2.4493 0.14964 3.5308 0.75311 0.244 0.13605 0.30937 0.3374 0.32837 0.53516v1.4636c0 0.20153-0.22234 0.43496-0.45588 0.31325-1.9051-0.99106-4.4336-1.0992-6.5405 0.012454-0.21531 0.1136-0.44049-0.11624-0.44049-0.31834v-1.3909c0-0.22286 0.0043708-0.60328 0.23051-0.94257l3.7149-5.2923-3.2345-3.7741e-4c-0.19782 0-0.3565-0.14002-0.35783-0.34532"
                fill="#fff"/>
            <path
                d="m12.591 10.651h-1.8832c-0.1792-0.0117-0.32229-0.1453-0.33693-0.31626l0.0015202-9.5978c0-0.19229 0.16248-0.34551 0.36334-0.34551l1.754-5.6611e-4c0.18338 0.0092464 0.33065 0.14719 0.34206 0.32249v1.253h0.035536c0.45702-1.2118 1.3184-1.7774 2.4784-1.7774 1.1778 0 1.9163 0.56554 2.4436 1.7774 0.45722-1.2118 1.4944-1.7774 2.6019-1.7774 0.7911 0 1.6523 0.32306 2.1797 1.0503 0.59765 0.80802 0.47508 1.9791 0.47508 3.0092l-0.0019003 6.0571c0 0.19134-0.16229 0.34532-0.36334 0.34532h-1.8809c-0.18908-0.012077-0.33769-0.16059-0.33769-0.34476l-5.701e-4 -5.0884c0-0.40344 0.035156-1.4136-0.053019-1.7972-0.14043-0.64649-0.56249-0.8284-1.1071-0.8284-0.45721 0-0.93191 0.30287-1.1256 0.78764-0.19307 0.48496-0.17559 1.2924-0.17559 1.838v5.0878c0 0.19134-0.16248 0.34532-0.36315 0.34532h-1.8811c-0.18908-0.012077-0.33807-0.16059-0.33807-0.34476l-0.0019003-5.0884c0-1.0703 0.17578-2.6454-1.16-2.6454-1.354 0-1.301 1.5345-1.301 2.6454l-7.601e-4 5.0878c0 0.19134-0.16267 0.34532-0.36334 0.34532"
                fill="#fff"/>
            <path
                d="m47.415 2.148c-1.3887 0-1.4764 1.878-1.4764 3.0496 0 1.1713-0.017474 3.6757 1.4593 3.6757 1.4594 0 1.5294-2.0197 1.5294-3.2513 0-0.80783-0.035346-1.7774-0.28163-2.545-0.21093-0.66668-0.63299-0.92898-1.2306-0.92898zm-0.017103-1.9593c2.7952 0 4.3067 2.3835 4.3067 5.4129 0 2.9281-1.6696 5.2514-4.3067 5.2514-2.7425 0-4.2369-2.3839-4.2369-5.3523 0-2.9894 1.5119-5.312 4.2369-5.312z"
                fill="#fff"/>
            <path
                d="m55.33 10.651h-1.8766c-0.18851-0.012077-0.33769-0.16059-0.33769-0.34476l-0.0032305-9.6013c0.015963-0.17587 0.17198-0.31343 0.36182-0.31343l1.7468-5.6611e-4c0.16457 0.0086803 0.30025 0.11983 0.33483 0.26871v1.4683h0.035346c0.52753-1.3132 1.2654-1.9389 2.5664-1.9389 0.84374 0 1.6702 0.30268 2.1975 1.1311 0.49218 0.76745 0.49218 2.0599 0.49218 2.989v6.0398c-0.020903 0.16983-0.17483 0.30211-0.36087 0.30211h-1.8878c-0.17445-0.011134-0.31507-0.13851-0.33522-0.30211v-5.2112c0-1.0503 0.12314-2.5856-1.1778-2.5856-0.45722 0-0.87908 0.30306-1.09 0.76726-0.26376 0.58611-0.29911 1.1715-0.29911 1.8183v5.168c-0.0032305 0.19134-0.1659 0.34532-0.36657 0.34532"
                fill="#fff"/>
            <path
                d="m32.135 10.627c-0.12447 0.11115-0.30424 0.1185-0.44486 0.043402-0.6252-0.5161-0.73732-0.75462-1.0796-1.246-1.0336 1.0456-1.7656 1.3594-3.1047 1.3594-1.5854 0-2.8187-0.972-2.8187-2.9149 0-1.5181 0.82797-2.5503 2.0082-3.0562 1.0216-0.44553 2.4489-0.52648 3.5414-0.64819v-0.24286c0-0.44534 0.035156-0.97125-0.22918-1.356-0.22937-0.34419-0.66948-0.48591-1.0571-0.48591-0.71832 0-1.3566 0.36533-1.5138 1.1228-0.032685 0.1687-0.1564 0.33551-0.32685 0.34419l-1.8254-0.19644c-0.15431-0.034532-0.32533-0.15719-0.28125-0.39118 0.41997-2.1988 2.4197-2.863 4.2115-2.863 0.91652 0 2.1139 0.24267 2.8364 0.93124 0.91633 0.84991 0.82797 1.9836 0.82797 3.2187v2.913c0 0.87671 0.36676 1.2609 0.71091 1.7329 0.12029 0.17078 0.14708 0.37269-0.006271 0.49723-0.38443 0.32023-1.068 0.90954-1.444 1.242l-0.0045607-0.0041514zm-1.8982-4.5596c0 0.72896 0.017293 1.3358-0.3527 1.9838-0.2993 0.52591-0.77533 0.8501-1.3036 0.8501-0.72212 0-1.1449-0.54667-1.1449-1.3564 0-1.5928 1.4387-1.8821 2.8012-1.8821v0.40458z"
                fill="#fff"/>
            <path
                d="m7.4479 10.627c-0.12447 0.11115-0.30443 0.1185-0.44486 0.043402-0.62596-0.5161-0.73789-0.75462-1.0794-1.246-1.0341 1.0456-1.7661 1.3594-3.1049 1.3594-1.5856 0-2.8187-0.972-2.8187-2.9149 0-1.5181 0.82778-2.5503 2.0082-3.0562 1.0216-0.44553 2.4489-0.52648 3.5409-0.64819v-0.24286c0-0.44534 0.035536-0.97125-0.2288-1.356-0.22918-0.34419-0.66967-0.48591-1.057-0.48591-0.71832 0-1.3572 0.36533-1.5136 1.1228-0.032685 0.1687-0.15659 0.33551-0.32742 0.34419l-1.8251-0.19644c-0.15431-0.034532-0.32571-0.15719-0.28125-0.39118 0.4194-2.1988 2.4189-2.863 4.2115-2.863 0.91614 0 2.1141 0.24267 2.8364 0.93124 0.91595 0.84991 0.82816 1.9836 0.82816 3.2187v2.913c0 0.87671 0.36638 1.2609 0.71053 1.7329 0.11991 0.17078 0.14746 0.37269-0.005891 0.49723-0.38481 0.32023-1.0685 0.90954-1.4444 1.242l-0.0043707-0.0041514zm-1.8988-4.5596c0 0.72896 0.017673 1.3358-0.35213 1.9838-0.2993 0.52591-0.77533 0.8501-1.3038 0.8501-0.72193 0-1.1451-0.54667-1.1451-1.3564 0-1.5928 1.4391-1.8821 2.8011-1.8821v0.40458z"
                fill="#fff"/>
        </g>
        <path
            d="m68.99 18.285c1.1147 0 2.0077-0.266 2.679-0.798s1.007-1.2477 1.007-2.147c0-0.63333-0.16467-1.1495-0.494-1.5485s-0.86767-0.74417-1.615-1.0355l-1.482-0.57c-0.59533-0.228-0.99433-0.437-1.197-0.627s-0.304-0.44967-0.304-0.779c0-0.82333 0.608-1.235 1.824-1.235 0.836 0 1.748 0.15833 2.736 0.475v-1.33c-0.88667-0.40533-1.8303-0.608-2.831-0.608-1.0387 0-1.8778 0.25333-2.5175 0.76s-0.9595 1.1717-0.9595 1.995c0 1.254 0.703 2.1407 2.109 2.66l1.615 0.608c0.51933 0.19 0.87717 0.38 1.0735 0.57s0.2945 0.437 0.2945 0.741c0 0.456-0.1615 0.80433-0.4845 1.045s-0.79483 0.361-1.4155 0.361c-1.0133 0-2.1153-0.19633-3.306-0.589v1.33c0.92467 0.48133 2.014 0.722 3.268 0.722zm8.6166 0c1.3173 0 2.432-0.247 3.344-0.741v-1.349c-1.0387 0.39267-2.0583 0.589-3.059 0.589-1.0767 0-1.8715-0.25967-2.3845-0.779s-0.78217-1.3237-0.8075-2.413h6.308c0.10133-0.48133 0.152-1.0197 0.152-1.615 0-1.2413-0.323-2.2008-0.969-2.8785s-1.5707-1.0165-2.774-1.0165c-1.4313 0-2.546 0.4465-3.344 1.3395s-1.197 2.1438-1.197 3.7525c0 1.6847 0.399 2.9577 1.197 3.819s1.976 1.292 3.534 1.292zm1.824-5.947h-4.731c0.063333-0.93733 0.31667-1.6435 0.76-2.1185s1.064-0.7125 1.862-0.7125c0.69667 0 1.2255 0.19633 1.5865 0.589 0.361 0.39267 0.5415 0.97533 0.5415 1.748 0 0.228-0.0063333 0.39267-0.019 0.494zm4.8166 5.757c0.494 0 0.95-0.076 1.368-0.228v-1.349c-0.266 0.038-0.52567 0.057-0.779 0.057-0.27867 0-0.47817-0.0665-0.5985-0.1995s-0.1805-0.34517-0.1805-0.6365v-11.799h-1.881v11.913c0 0.722 0.17733 1.2762 0.532 1.6625s0.86767 0.5795 1.539 0.5795zm4.1706 0c0.494 0 0.95-0.076 1.368-0.228v-1.349c-0.266 0.038-0.52567 0.057-0.779 0.057-0.27867 0-0.47817-0.0665-0.5985-0.1995s-0.1805-0.34517-0.1805-0.6365v-11.799h-1.881v11.913c0 0.722 0.17733 1.2762 0.532 1.6625s0.86767 0.5795 1.539 0.5795zm6.3366 0.19c1.3173 0 2.432-0.247 3.344-0.741v-1.349c-1.0387 0.39267-2.0583 0.589-3.059 0.589-1.0767 0-1.8715-0.25967-2.3845-0.779s-0.78217-1.3237-0.8075-2.413h6.308c0.10133-0.48133 0.152-1.0197 0.152-1.615 0-1.2413-0.323-2.2008-0.969-2.8785s-1.5707-1.0165-2.774-1.0165c-1.4313 0-2.546 0.4465-3.344 1.3395s-1.197 2.1438-1.197 3.7525c0 1.6847 0.399 2.9577 1.197 3.819s1.976 1.292 3.534 1.292zm1.824-5.947h-4.731c0.063333-0.93733 0.31667-1.6435 0.76-2.1185s1.064-0.7125 1.862-0.7125c0.69667 0 1.2255 0.19633 1.5865 0.589 0.361 0.39267 0.5415 0.97533 0.5415 1.748 0 0.228-0.0063333 0.39267-0.019 0.494zm4.6266 5.662v-7.106c0.722-0.608 1.5897-0.912 2.603-0.912 0.27867 0 0.62067 0.025333 1.026 0.076v-1.71c-0.27867-0.038-0.53833-0.057-0.779-0.057-0.36733 0-0.70933 0.050667-1.026 0.152s-0.627 0.2565-0.931 0.4655-0.63333 0.5035-0.988 0.8835l-0.209-1.425h-1.577v9.633h1.881zm11.818 0.209c0.96267 0 1.8113-0.19 2.546-0.57v-1.349c-0.81067 0.25333-1.558 0.38-2.242 0.38-1.026 0-1.7765-0.26917-2.2515-0.8075s-0.7125-1.3838-0.7125-2.5365v-0.247c0-1.178 0.23433-2.0362 0.703-2.5745 0.46867-0.53833 1.235-0.8075 2.299-0.8075 0.69667 0 1.406 0.114 2.128 0.342v-1.349c-0.74733-0.35467-1.5453-0.532-2.394-0.532-1.4947 0-2.6505 0.44017-3.4675 1.3205-0.817 0.88033-1.2255 2.1248-1.2255 3.7335 0 1.6213 0.39583 2.8595 1.1875 3.7145s1.9348 1.2825 3.4295 1.2825zm7.3436 0.076c1.3173 0 2.432-0.247 3.344-0.741v-1.349c-1.0387 0.39267-2.0583 0.589-3.059 0.589-1.0767 0-1.8715-0.25967-2.3845-0.779s-0.78217-1.3237-0.8075-2.413h6.308c0.10133-0.48133 0.152-1.0197 0.152-1.615 0-1.2413-0.323-2.2008-0.969-2.8785s-1.5707-1.0165-2.774-1.0165c-1.4313 0-2.546 0.4465-3.344 1.3395s-1.197 2.1438-1.197 3.7525c0 1.6847 0.399 2.9577 1.197 3.819s1.976 1.292 3.534 1.292zm1.824-5.947h-4.731c0.063333-0.93733 0.31667-1.6435 0.76-2.1185s1.064-0.7125 1.862-0.7125c0.69667 0 1.2255 0.19633 1.5865 0.589 0.361 0.39267 0.5415 0.97533 0.5415 1.748 0 0.228-0.006333 0.39267-0.019 0.494zm4.6266 5.662v-7.429c0.96267-0.646 1.9443-0.969 2.945-0.969 0.58267 0 1.0102 0.15833 1.2825 0.475 0.27233 0.31667 0.4085 0.81067 0.4085 1.482v6.441h1.881v-7.068c0-0.92467-0.24067-1.6308-0.722-2.1185s-1.1843-0.7315-2.109-0.7315c-1.33 0-2.5967 0.44967-3.8 1.349l-0.19-1.064h-1.577v9.633h1.881zm11.353 0.133c0.78533 0 1.4883-0.12033 2.109-0.361v-1.349c-0.50667 0.12667-1.0197 0.19-1.539 0.19-0.50667 0-0.8645-0.095-1.0735-0.285s-0.3135-0.51933-0.3135-0.988v-5.491h2.85v-1.482h-2.85v-2.698h-1.539l-0.285 2.736-1.805 0.228v1.216h1.748v5.586c0 1.7987 0.89933 2.698 2.698 2.698zm4.6076-0.133v-7.106c0.722-0.608 1.5897-0.912 2.603-0.912 0.27867 0 0.62067 0.025333 1.026 0.076v-1.71c-0.27867-0.038-0.53833-0.057-0.779-0.057-0.36733 0-0.70933 0.050667-1.026 0.152s-0.627 0.2565-0.931 0.4655-0.63333 0.5035-0.988 0.8835l-0.209-1.425h-1.577v9.633h1.881zm6.3176 0.247c0.54467 0 1.0925-0.10767 1.6435-0.323s1.0545-0.51933 1.5105-0.912l0.152 0.988h1.558v-6.878c0-1.026-0.285-1.7892-0.855-2.2895s-1.4567-0.7505-2.66-0.7505c-0.67133 0-1.3363 0.0665-1.995 0.1995s-1.216 0.31983-1.672 0.5605v1.33c1.1527-0.39267 2.2673-0.589 3.344-0.589 0.74733 0 1.2762 0.13933 1.5865 0.418 0.31033 0.27867 0.4655 0.76 0.4655 1.444v1.254c-0.86133-0.21533-1.6593-0.323-2.394-0.323-1.1147 0-2.0013 0.2755-2.66 0.8265s-0.988 1.2888-0.988 2.2135c0 0.86133 0.26917 1.5485 0.8075 2.0615s1.2572 0.7695 2.1565 0.7695zm0.456-1.425c-0.494 0-0.874-0.12983-1.14-0.3895s-0.399-0.63017-0.399-1.1115c0-1.102 0.71567-1.653 2.147-1.653 0.684 0 1.3553 0.082333 2.014 0.247v1.938c-0.88667 0.646-1.7607 0.969-2.622 0.969zm8.0276 1.273c0.494 0 0.95-0.076 1.368-0.228v-1.349c-0.266 0.038-0.52567 0.057-0.779 0.057-0.27867 0-0.47817-0.0665-0.5985-0.1995s-0.1805-0.34517-0.1805-0.6365v-11.799h-1.881v11.913c0 0.722 0.17733 1.2762 0.532 1.6625s0.86767 0.5795 1.539 0.5795z"
            fill="#fff" fill-rule="nonzero"/>
    </g>
</svg>